<svg width="28" height="28" viewBox="0 0 28 28" fill="none" xmlns="http://www.w3.org/2000/svg">
<path d="M14 26.627C14.305 26.627 14.5887 26.4857 15.1575 26.202L19.72 23.9307C21.7413 22.927 22.75 22.4232 22.75 21.627V11.627M14 26.627C13.695 26.627 13.4113 26.4857 12.8425 26.202L8.28 23.9307C6.25875 22.927 5.25 22.4232 5.25 21.627V11.627M14 26.627V16.627M22.75 11.627C22.75 10.8307 21.74 10.3282 19.7212 9.3232L15.1575 7.0507C14.5875 6.7682 14.305 6.62695 14 6.62695M22.75 11.627C22.75 12.4232 21.74 12.9257 19.7212 13.9307L15.1575 16.2032C14.5887 16.4857 14.305 16.627 14 16.627M5.25 11.627C5.25 10.8307 6.25875 10.327 8.28 9.3232L12.8425 7.05195C13.4113 6.7682 13.695 6.62695 14 6.62695M5.25 11.627C5.25 12.4232 6.26 12.9257 8.27875 13.9307L12.8425 16.2032C13.4113 16.4857 13.695 16.627 14 16.627M14 6.62695V1.62695M26.5 25.377L22.75 22.252M1.5 25.377L5.25 22.252" stroke="#9DFF3A" stroke-width="1.875" stroke-linecap="round" stroke-linejoin="round"/>
</svg>
