<svg width="28" height="28" viewBox="0 0 28 28" fill="none" xmlns="http://www.w3.org/2000/svg">
<path d="M6.5 10.377C8.5625 10.377 9.59375 10.377 10.2338 9.73571C10.875 9.09571 10.875 8.06445 10.875 6.00195C10.875 3.93945 10.875 2.9082 10.2338 2.2682C9.59375 1.62695 8.5625 1.62695 6.5 1.62695C4.4375 1.62695 3.40625 1.62695 2.76625 2.2682C2.125 2.9082 2.125 3.93945 2.125 6.00195C2.125 8.06445 2.125 9.09571 2.76625 9.73571C3.40625 10.377 4.4375 10.377 6.5 10.377ZM6.5 10.377V16.627M6.5 16.627C5.6425 16.627 4.95 17.317 3.57125 18.6982C2.19 20.0782 1.5 20.7695 1.5 21.627C1.5 22.4845 2.19 23.177 3.57125 24.5557C4.95125 25.937 5.6425 26.627 6.5 26.627C7.3575 26.627 8.05 25.937 9.42875 24.5557C10.81 23.1757 11.5 22.4845 11.5 21.627M6.5 16.627C7.3575 16.627 8.04875 17.317 9.42875 18.6982C10.81 20.077 11.5 20.7695 11.5 21.627M11.5 21.627H17.75M17.75 21.627C17.75 19.5645 17.75 18.5332 18.3913 17.8932C19.0313 17.252 20.0625 17.252 22.125 17.252C24.1875 17.252 25.2188 17.252 25.8588 17.8932C26.5 18.5332 26.5 19.5645 26.5 21.627C26.5 23.6895 26.5 24.7207 25.8588 25.3607C25.2188 26.002 24.1875 26.002 22.125 26.002C20.0625 26.002 19.0313 26.002 18.3913 25.3607C17.75 24.7207 17.75 23.6895 17.75 21.627Z" stroke="#9DFF3A" stroke-width="1.5" stroke-linecap="round" stroke-linejoin="round"/>
</svg>
