<svg width="20" height="26" viewBox="0 0 20 26" fill="none" xmlns="http://www.w3.org/2000/svg">
<path d="M10 25.627C7.10417 24.8978 4.71333 23.2361 2.8275 20.642C0.941667 18.0478 -0.000832781 15.1678 5.5212e-07 12.002V4.37695L10 0.626953L20 4.37695V12.002C20 15.1686 19.0575 18.049 17.1725 20.6432C15.2875 23.2374 12.8967 24.8986 10 25.627ZM10 23.002C12.0208 22.377 13.7083 21.1424 15.0625 19.2982C16.4167 17.454 17.2083 15.397 17.4375 13.127H10V3.2832L2.5 6.0957V12.5645C2.5 12.7103 2.52083 12.8978 2.5625 13.127H10V23.002Z" fill="#9DFF3A"/>
</svg>
